<svg id="Capa_1" enable-background="new 0 0 511.735 511.735" height="512" viewBox="0 0 511.735 511.735" width="512" xmlns="http://www.w3.org/2000/svg" fill="#30475e"><g><g><path d="m379.874 162.217c0-28.81-23.439-52.249-52.249-52.249s-52.249 23.439-52.249 52.249 23.439 52.249 52.249 52.249 52.249-23.439 52.249-52.249zm-52.249 32.248c-17.782 0-32.249-14.467-32.249-32.249s14.467-32.249 32.249-32.249 32.249 14.467 32.249 32.249c0 17.783-14.467 32.249-32.249 32.249z"/><path d="m97.572 189.065c-17.499 0-31.734 14.236-31.734 31.734 0 17.499 14.236 31.734 31.734 31.734s31.734-14.236 31.734-31.734c0-17.499-14.236-31.734-31.734-31.734zm0 43.468c-6.47 0-11.734-5.264-11.734-11.734s5.264-11.734 11.734-11.734 11.734 5.264 11.734 11.734-5.263 11.734-11.734 11.734z"/><path d="m475.586 137.712-54.581-54.582c-.148-.148-.301-.292-.458-.429-19.987-18.33-45.919-28.42-73.044-28.42h-8.92c-37.21 0-72.2 15.233-98.405 41.438-22.944 22.944-53.449 35.58-85.897 35.58h-11.981c-40.581 0-78.878 17.777-105.071 48.772l-26.463 31.313c-25.218 29.844-3.194 76.833 35.665 76.833h9.094l24.12 41.914h-13.044c-20.853 0-37.818 16.965-37.818 37.819v13.341c0 18.465 8.867 35.961 23.72 46.803 24.808 18.11 59.654 29.36 90.941 29.36 0 0 227.059-.001 229.986-.001 36.775 0 71.356-16.214 94.876-44.483l14.885-17.892c18.407-22.124 28.544-50.157 28.544-78.938v-91.156c0-32.966-12.837-63.96-36.149-87.272zm-215.006 192.419 24.518-40.663c1.835 1.271 3.042 3.389 3.042 5.786v34.876h-27.56zm-17.507-9.695-18.541-32.218h37.967zm-17.496 9.695h-37.963l19.424-32.214zm-55.47-9.695-18.541-32.218h37.967zm-91.508-32.218h37.967l-19.426 32.218zm55.473 9.699 18.539 32.214h-37.963zm9.371 139.538c-26.85 0-57.917-10.015-79.149-25.514-9.713-7.09-15.512-18.547-15.512-30.649v-13.342c0-9.825 7.993-17.819 17.818-17.819h221.538v33.092c0 .19.012.38.013.57h-136.226c-5.523 0-10 4.477-10 10s4.477 10 10 10h139.112c3.691 12.819 10.91 24.553 20.648 33.662zm324.374-55.169-14.886 17.892c-19.708 23.689-48.686 37.275-79.502 37.275-6.599 0-13.299.329-19.835-.721-25.742-4.21-45.453-26.597-45.453-53.512v-87.965c0-14.908-12.129-27.037-27.037-27.037h-234.674c-22.221 0-34.788-26.885-20.389-43.924l26.462-31.313c19.821-23.455 47.755-38.043 77.97-41.08l25.246 25.246c9.317 9.316 21.704 14.447 34.879 14.447h25.397c5.523 0 10-4.477 10-10s-4.477-10-10-10h-25.397c-7.833 0-15.198-3.05-20.737-8.59l-11.759-11.759c36.358-.958 70.398-15.566 96.217-41.384 22.466-22.466 52.34-35.58 84.262-35.58h8.92c22.114 0 43.254 8.229 59.545 23.178l54.396 54.396c18.574 18.574 29.206 42.97 30.206 69.072l-50.408 50.407c-5.75 5.75-13.395 8.917-21.526 8.917h-15.184c-27.814 0-50.443 22.628-50.443 50.442v9.441c0 5.523 4.477 10 10 10s10-4.477 10-10v-9.441c0-16.786 13.657-30.442 30.443-30.442h15.187c13.474 0 26.141-5.247 35.668-14.774l36.351-36.351v67.014c-.001 24.117-8.495 47.608-23.919 66.146z"/><path d="m111.525 385.478c-3.631-2.419-8.511-2.164-11.89.586-3.249 2.644-4.484 7.227-3.051 11.152 1.425 3.902 5.233 6.57 9.39 6.572 4.242.002 8.1-2.775 9.47-6.781 1.455-4.25-.204-9.029-3.919-11.529z"/></g></g></svg>